<svg width="307" height="324" viewBox="0 0 307 324" fill="none" xmlns="http://www.w3.org/2000/svg">
<g clip-path="url(#clip0_13_59)">
<path fill-rule="evenodd" clip-rule="evenodd" d="M183.099 211.88C198.086 226.867 198.086 251.164 183.099 266.151C168.113 281.137 143.815 281.137 128.829 266.151C113.843 251.164 113.843 226.867 128.829 211.88C143.815 196.894 168.113 196.894 183.099 211.88ZM179.81 262.862C192.98 249.692 192.98 228.339 179.81 215.169C166.64 202 145.288 202 132.118 215.169C118.948 228.339 118.948 249.692 132.118 262.862C145.288 276.031 166.64 276.031 179.81 262.862Z" fill="white"/>
<path d="M137.874 222.57L150.193 261.202L151.723 236.419L176.506 234.889L137.874 222.57Z" fill="white"/>
<path d="M137.874 222.57L139.04 218.914C137.672 218.478 136.176 218.841 135.16 219.856C134.145 220.871 133.782 222.368 134.218 223.736L137.874 222.57ZM150.193 261.202L146.537 262.368C147.098 264.127 148.833 265.238 150.666 265.01C152.499 264.783 153.909 263.282 154.023 261.438L150.193 261.202ZM176.506 234.889L176.742 238.719C178.586 238.605 180.087 237.195 180.314 235.362C180.542 233.529 179.431 231.794 177.672 231.233L176.506 234.889ZM151.723 236.419L151.486 232.589C149.553 232.708 148.012 234.249 147.893 236.182L151.723 236.419ZM168.052 258.175C169.55 259.673 171.98 259.673 173.479 258.175C174.977 256.676 174.977 254.246 173.479 252.748L168.052 258.175ZM185.813 268.864C202.298 252.379 202.298 225.652 185.813 209.167L180.386 214.594C193.874 228.082 193.874 249.95 180.386 263.437L185.813 268.864ZM126.115 268.864C142.6 285.349 169.328 285.349 185.813 268.864L180.386 263.437C166.898 276.925 145.03 276.925 131.542 263.437L126.115 268.864ZM126.115 209.167C109.63 225.652 109.63 252.379 126.115 268.864L131.542 263.437C118.055 249.95 118.055 228.082 131.542 214.594L126.115 209.167ZM185.813 209.167C169.328 192.682 142.6 192.682 126.115 209.167L131.542 214.594C145.03 201.106 166.898 201.106 180.386 214.594L185.813 209.167ZM177.097 217.883C188.768 229.554 188.768 248.477 177.097 260.148L182.524 265.575C197.192 250.907 197.192 227.124 182.524 212.456L177.097 217.883ZM134.832 217.883C146.503 206.212 165.426 206.212 177.097 217.883L182.524 212.456C167.855 197.787 144.073 197.787 129.405 212.456L134.832 217.883ZM134.832 260.148C123.16 248.477 123.16 229.554 134.832 217.883L129.405 212.456C114.736 227.124 114.736 250.907 129.405 265.575L134.832 260.148ZM177.097 260.148C165.426 271.819 146.503 271.819 134.832 260.148L129.405 265.575C144.073 280.244 167.855 280.244 182.524 265.575L177.097 260.148ZM134.218 223.736L146.537 262.368L153.849 260.036L141.53 221.404L134.218 223.736ZM177.672 231.233L139.04 218.914L136.708 226.226L175.34 238.545L177.672 231.233ZM154.023 261.438L155.553 236.655L147.893 236.182L146.363 260.965L154.023 261.438ZM151.959 240.249L176.742 238.719L176.27 231.059L151.486 232.589L151.959 240.249ZM149.009 239.132L168.052 258.175L173.479 252.748L154.436 233.705L149.009 239.132Z" fill="white"/>
<path d="M47.1226 168.112H39.4476V183.462H47.1226V168.112ZM47.1226 299.851H39.4476L39.4476 307.526H47.1226V299.851ZM261.945 299.851V307.526H269.62V299.851H261.945ZM47.1226 175.787C47.1226 183.462 41.6957 181.214 39.4476 175.788C39.4476 175.788 39.4476 175.787 39.4476 175.787C39.4476 175.787 39.4476 175.787 39.4476 175.787C39.4476 175.787 39.4476 175.787 39.4476 175.788C39.4476 175.788 39.4476 175.789 39.4476 175.791C39.4476 175.795 39.4476 175.802 39.4476 175.817C39.4476 175.848 39.4476 175.908 39.4476 176.029C39.4476 176.272 39.4476 176.756 39.4476 177.726C39.4476 179.664 39.4476 183.541 39.4476 191.295C39.4476 206.803 39.4476 237.819 39.4476 299.851H54.7976C54.7976 237.819 54.7976 206.803 54.7976 191.295C54.7976 183.541 54.7976 179.664 54.7976 177.726C54.7976 176.756 54.7976 176.272 54.7976 176.029C54.7976 175.908 54.7976 175.848 54.7976 175.817C54.7976 175.802 54.7976 175.795 54.7976 175.791C54.7976 175.789 54.7976 175.788 54.7976 175.787C54.7976 175.787 54.7976 175.787 54.7976 175.787C54.7976 175.787 54.7976 175.787 54.7976 175.787C54.7976 175.787 54.7976 175.787 54.7976 175.786C52.5494 170.36 47.1226 168.112 47.1226 175.787ZM47.1226 307.526H261.945V292.176H47.1226V307.526ZM269.62 299.851V175.787H254.27V299.851H269.62Z" fill="white"/>
<path d="M8.31677 90.3923L37.2579 8.22006H268.468L299.44 90.3923" stroke="white" stroke-width="15.35"/>
<path d="M10.4454 93.6148C40.3977 199.969 55.1342 206.341 81.3433 93.6148H10.4454Z" stroke="white" stroke-width="15.35"/>
<path d="M81.3431 93.6148C111.295 199.969 127.178 206.341 153.387 93.6148H81.3431Z" stroke="white" stroke-width="15.35"/>
<path d="M153.387 93.6148C183.339 199.969 199.222 206.341 225.431 93.6148H153.387Z" stroke="white" stroke-width="15.35"/>
<path d="M225.431 93.6148C255.383 199.969 271.266 206.341 297.475 93.6148H225.431Z" stroke="white" stroke-width="15.35"/>
</g>
<defs>
<clipPath id="clip0_13_59">
<rect y="0.545074" width="307" height="322.782" rx="15.35" fill="white"/>
</clipPath>
</defs>
</svg>
