<svg width="80" height="80" viewBox="0 0 80 80" fill="none" xmlns="http://www.w3.org/2000/svg">
<g clip-path="url(#clip0_16_21)">
<path fill-rule="evenodd" clip-rule="evenodd" d="M47.7132 55.071C51.6184 58.9763 51.6184 65.3079 47.7132 69.2132C43.808 73.1184 37.4763 73.1184 33.5711 69.2132C29.6658 65.3079 29.6658 58.9763 33.5711 55.071C37.4763 51.1658 43.808 51.1658 47.7132 55.071ZM46.8561 68.3561C50.288 64.9242 50.288 59.36 46.8561 55.9281C43.4242 52.4962 37.86 52.4962 34.4282 55.9281C30.9963 59.36 30.9963 64.9242 34.4282 68.3561C37.86 71.7879 43.4242 71.7879 46.8561 68.3561Z" fill="#E23745"/>
<path d="M35.9281 57.8566L39.1383 67.9235L39.5369 61.4654L45.995 61.0668L35.9281 57.8566Z" fill="#E23745"/>
<path d="M35.9281 57.8566L36.2319 56.9039C35.8755 56.7902 35.4855 56.885 35.221 57.1495C34.9565 57.414 34.8617 57.804 34.9754 58.1604L35.9281 57.8566ZM39.1383 67.9235L38.1855 68.2274C38.3317 68.6859 38.7838 68.9752 39.2615 68.9159C39.7391 68.8566 40.1067 68.4655 40.1364 67.9852L39.1383 67.9235ZM45.995 61.0668L46.0567 62.0649C46.537 62.0352 46.9281 61.6676 46.9874 61.19C47.0467 60.7123 46.7574 60.2602 46.2989 60.114L45.995 61.0668ZM39.5369 61.4654L39.4753 60.4673C38.9716 60.4984 38.5699 60.9001 38.5388 61.4038L39.5369 61.4654ZM43.792 67.1347C44.1825 67.5252 44.8157 67.5252 45.2062 67.1347C45.5967 66.7442 45.5967 66.111 45.2062 65.7205L43.792 67.1347ZM48.4203 69.9203C52.7161 65.6245 52.7161 58.6597 48.4203 54.3639L47.0061 55.7781C50.5208 59.2928 50.5208 64.9913 47.0061 68.5061L48.4203 69.9203ZM32.864 69.9203C37.1597 74.216 44.1245 74.216 48.4203 69.9203L47.0061 68.5061C43.4914 72.0208 37.7929 72.0208 34.2782 68.5061L32.864 69.9203ZM32.864 54.3639C28.5682 58.6597 28.5682 65.6245 32.864 69.9203L34.2782 68.5061C30.7635 64.9913 30.7635 59.2928 34.2782 55.7781L32.864 54.3639ZM48.4203 54.3639C44.1245 50.0681 37.1597 50.0681 32.864 54.3639L34.2782 55.7781C37.7929 52.2634 43.4914 52.2634 47.0061 55.7781L48.4203 54.3639ZM46.149 56.6352C49.1904 59.6766 49.1904 64.6076 46.149 67.649L47.5632 69.0632C51.3856 65.2408 51.3856 59.0434 47.5632 55.221L46.149 56.6352ZM35.1353 56.6352C38.1766 53.5939 43.1076 53.5939 46.149 56.6352L47.5632 55.221C43.7408 51.3986 37.5435 51.3986 33.7211 55.221L35.1353 56.6352ZM35.1353 67.649C32.0939 64.6076 32.0939 59.6766 35.1353 56.6352L33.7211 55.221C29.8987 59.0434 29.8987 65.2408 33.7211 69.0632L35.1353 67.649ZM46.149 67.649C43.1076 70.6903 38.1766 70.6903 35.1353 67.649L33.7211 69.0632C37.5435 72.8856 43.7408 72.8856 47.5632 69.0632L46.149 67.649ZM34.9754 58.1604L38.1855 68.2274L40.091 67.6197L36.8808 57.5528L34.9754 58.1604ZM46.2989 60.114L36.2319 56.9039L35.6243 58.8093L45.6912 62.0195L46.2989 60.114ZM40.1364 67.9852L40.535 61.527L38.5388 61.4038L38.1402 67.8619L40.1364 67.9852ZM39.5985 62.4635L46.0567 62.0649L45.9334 60.0687L39.4753 60.4673L39.5985 62.4635ZM38.8298 62.1725L43.792 67.1347L45.2062 65.7205L40.244 60.7583L38.8298 62.1725Z" fill="#E23745"/>
<path d="M12.2795 43.6656H10.2795V47.6656H12.2795V43.6656ZM12.2795 77.995L10.2795 77.995L10.2795 79.995H12.2795V77.995ZM68.2592 77.995V79.995H70.2592V77.995H68.2592ZM12.2795 45.6656C12.2795 47.6656 10.8654 47.0799 10.2795 45.6658C10.2795 45.6658 10.2795 45.6657 10.2795 45.6657C10.2795 45.6657 10.2795 45.6657 10.2795 45.6657C10.2795 45.6657 10.2795 45.6657 10.2795 45.6658C10.2795 45.6659 10.2795 45.6662 10.2795 45.6666C10.2795 45.6676 10.2795 45.6696 10.2795 45.6735C10.2795 45.6814 10.2795 45.6972 10.2795 45.7288C10.2795 45.7919 10.2795 45.9182 10.2795 46.1708C10.2795 46.6759 10.2795 47.6862 10.2795 49.7068C10.2795 53.748 10.2795 61.8303 10.2795 77.995L14.2795 77.995C14.2795 61.8303 14.2795 53.748 14.2795 49.7068C14.2795 47.6862 14.2795 46.6759 14.2795 46.1708C14.2795 45.9182 14.2795 45.7919 14.2795 45.7288C14.2795 45.6972 14.2795 45.6814 14.2795 45.6735C14.2795 45.6696 14.2795 45.6676 14.2795 45.6666C14.2795 45.6661 14.2795 45.6659 14.2795 45.6658C14.2795 45.6657 14.2795 45.6657 14.2795 45.6656C14.2795 45.6656 14.2795 45.6656 14.2795 45.6656C14.2795 45.6656 14.2795 45.6655 14.2795 45.6655C13.6937 44.2514 12.2795 43.6656 12.2795 45.6656ZM12.2795 79.995H68.2592V75.995H12.2795V79.995ZM70.2592 77.995V45.6656H66.2592V77.995H70.2592Z" fill="#E23745"/>
<path d="M2.16724 23.413L9.70889 2H69.9591L78.03 23.413" stroke="#E23745" stroke-width="4"/>
<path d="M2.72192 24.2527C10.5271 51.967 14.3672 53.6275 21.1969 24.2527H2.72192Z" stroke="#E23745" stroke-width="4"/>
<path d="M21.197 24.2527C29.0022 51.967 33.141 53.6275 39.9707 24.2527H21.197Z" stroke="#E23745" stroke-width="4"/>
<path d="M39.9707 24.2527C47.7759 51.967 51.9147 53.6275 58.7444 24.2527H39.9707Z" stroke="#E23745" stroke-width="4"/>
<path d="M58.7444 24.2527C66.5495 51.967 70.6883 53.6275 77.5181 24.2527H58.7444Z" stroke="#E23745" stroke-width="4"/>
</g>
<defs>
<clipPath id="clip0_16_21">
<rect width="80" height="80" rx="4" fill="white"/>
</clipPath>
</defs>
</svg>
